<?xml version="1.0" encoding="UTF-8" standalone="no"?>
<svg
   width="814"
   height="814"
   version="1.1"
   id="svg4"
   sodipodi:docname="bg-tablet-pattern.svg"
   inkscape:version="1.1 (c68e22c387, 2021-05-23)"
   xmlns:inkscape="http://www.inkscape.org/namespaces/inkscape"
   xmlns:sodipodi="http://sodipodi.sourceforge.net/DTD/sodipodi-0.dtd"
   xmlns="http://www.w3.org/2000/svg"
   xmlns:svg="http://www.w3.org/2000/svg">
  <defs
     id="defs8" />
  <sodipodi:namedview
     id="namedview6"
     pagecolor="#ffffff"
     bordercolor="#666666"
     borderopacity="1.0"
     inkscape:pageshadow="2"
     inkscape:pageopacity="0.0"
     inkscape:pagecheckerboard="0"
     showgrid="false"
     inkscape:zoom="1.0724816"
     inkscape:cx="406.53379"
     inkscape:cy="407"
     inkscape:window-width="1271"
     inkscape:window-height="793"
     inkscape:window-x="713"
     inkscape:window-y="360"
     inkscape:window-maximized="0"
     inkscape:current-layer="svg4" />
  <rect
     width="436"
     height="970"
     x="774"
     y="-62"
     fill="#FFF0EC"
     fill-rule="evenodd"
     rx="218"
     transform="rotate(45 718.814 -291.157)"
     id="rect2" />
  <path
     style="fill:#d7f4ee;stroke-width:0.932417"
     d="M 202.33448,813.07193 C 173.91516,811.00926 142.58071,802.10599 118.07812,789.13157 97.335929,778.14833 82.06866,766.89278 65.174817,750.12944 45.807054,730.9113 34.807405,715.65193 22.830684,691.38717 0.88363877,646.92258 -5.0965344,597.07489 5.6673432,548.32225 12.398193,517.83634 27.674292,485.88728 47.825658,460.15064 55.447508,450.41627 447.60258,58.216697 458.74914,49.180522 c 73.8315,-59.85291 177.63501,-65.101097 256.41466,-12.964031 33.31416,22.0476 58.21479,50.352432 76.00551,86.396339 25.41371,51.48802 29.30393,109.60005 11.04819,165.0378 -6.73881,20.46395 -21.12847,47.04652 -35.58384,65.7354 -7.11987,9.20503 -400.38743,402.52194 -411.3828,411.43441 -43.25768,35.0632 -97.74393,52.25587 -152.91638,48.25149 z"
     id="path215" />
  <path
     style="fill:#d7f4ee;stroke-width:0.932417"
     d="M 197.67239,812.47344 C 179.24995,810.50893 155.18432,804.47397 136.89392,797.23196 93.570027,780.07805 52.98466,744.73259 30.147536,704.26744 4.6950464,659.16811 -4.3175249,610.04371 3.7498084,560.38259 9.0392015,527.82199 24.010404,492.78151 44.384502,465.27606 48.504926,459.7134 104.05981,403.4609 230.72553,276.59507 431.64502,75.35818 457.49419,49.925996 470.0565,41.124934 506.2542,15.765082 545.16623,2.6903866 588.82131,1.2191907 649.8002,-0.83582599 706.7242,21.833067 750.19097,65.481574 c 43.17296,43.353466 66.84682,106.620046 62.37417,166.690246 -3.08512,41.43489 -14.60323,73.96253 -39.45375,111.41908 -7.33904,11.06195 -9.82627,13.59361 -211.24488,215.01858 -131.64243,131.64657 -206.47091,205.81639 -211.30885,209.44884 -30.47953,22.88485 -62.92953,36.75251 -100.06002,42.76115 -8.70957,1.40942 -44.5849,2.53269 -52.82525,1.65397 z"
     id="path291" />
</svg>
